<svg width="156" height="19" viewBox="0 0 156 19" fill="none" xmlns="http://www.w3.org/2000/svg">
<path d="M2.213 3.749V7.217H6.293V8.798H2.213V12.419H6.803V14H0.275V2.168H6.803V3.749H2.213ZM13.372 9.257L16.398 14H14.205L12.182 10.821L10.278 14H8.25504L11.281 9.393L8.25504 4.633H10.448L12.471 7.812L14.375 4.633H16.398L13.372 9.257ZM19.9514 6.01C20.2801 5.57933 20.7278 5.21667 21.2944 4.922C21.8611 4.62733 22.5014 4.48 23.2154 4.48C24.0314 4.48 24.7738 4.684 25.4424 5.092C26.1224 5.48867 26.6551 6.04967 27.0404 6.775C27.4258 7.50033 27.6184 8.33333 27.6184 9.274C27.6184 10.2147 27.4258 11.059 27.0404 11.807C26.6551 12.5437 26.1224 13.1217 25.4424 13.541C24.7738 13.949 24.0314 14.153 23.2154 14.153C22.5014 14.153 21.8668 14.0113 21.3114 13.728C20.7561 13.4333 20.3028 13.0707 19.9514 12.64V18.454H18.0134V4.633H19.9514V6.01ZM25.6464 9.274C25.6464 8.628 25.5104 8.07267 25.2384 7.608C24.9778 7.132 24.6264 6.775 24.1844 6.537C23.7538 6.28767 23.2891 6.163 22.7904 6.163C22.3031 6.163 21.8384 6.28767 21.3964 6.537C20.9658 6.78633 20.6144 7.149 20.3424 7.625C20.0818 8.101 19.9514 8.662 19.9514 9.308C19.9514 9.954 20.0818 10.5207 20.3424 11.008C20.6144 11.484 20.9658 11.8467 21.3964 12.096C21.8384 12.3453 22.3031 12.47 22.7904 12.47C23.2891 12.47 23.7538 12.3453 24.1844 12.096C24.6264 11.8353 24.9778 11.4613 25.2384 10.974C25.5104 10.4867 25.6464 9.92 25.6464 9.274ZM31.6429 1.42V14H29.7049V1.42H31.6429ZM38.4203 14.153C37.5363 14.153 36.7373 13.9547 36.0233 13.558C35.3093 13.15 34.7483 12.5833 34.3403 11.858C33.9323 11.1213 33.7283 10.2713 33.7283 9.308C33.7283 8.356 33.938 7.51167 34.3573 6.775C34.7767 6.03833 35.349 5.47167 36.0743 5.075C36.7997 4.67833 37.61 4.48 38.5053 4.48C39.4007 4.48 40.211 4.67833 40.9363 5.075C41.6617 5.47167 42.234 6.03833 42.6533 6.775C43.0727 7.51167 43.2823 8.356 43.2823 9.308C43.2823 10.26 43.067 11.1043 42.6363 11.841C42.2057 12.5777 41.6163 13.15 40.8683 13.558C40.1317 13.9547 39.3157 14.153 38.4203 14.153ZM38.4203 12.47C38.919 12.47 39.3837 12.351 39.8143 12.113C40.2563 11.875 40.6133 11.518 40.8853 11.042C41.1573 10.566 41.2933 9.988 41.2933 9.308C41.2933 8.628 41.163 8.05567 40.9023 7.591C40.6417 7.115 40.296 6.758 39.8653 6.52C39.4347 6.282 38.97 6.163 38.4713 6.163C37.9727 6.163 37.508 6.282 37.0773 6.52C36.658 6.758 36.3237 7.115 36.0743 7.591C35.825 8.05567 35.7003 8.628 35.7003 9.308C35.7003 10.3167 35.9553 11.0987 36.4653 11.654C36.9867 12.198 37.6383 12.47 38.4203 12.47ZM47.3062 5.993C47.5895 5.517 47.9635 5.14867 48.4282 4.888C48.9042 4.616 49.4652 4.48 50.1112 4.48V6.486H49.6182C48.8588 6.486 48.2808 6.67867 47.8842 7.064C47.4988 7.44933 47.3062 8.118 47.3062 9.07V14H45.3682V4.633H47.3062V5.993ZM60.6476 9.087C60.6476 9.43833 60.6249 9.75567 60.5796 10.039H53.4226C53.4792 10.787 53.7569 11.3877 54.2556 11.841C54.7542 12.2943 55.3662 12.521 56.0916 12.521C57.1342 12.521 57.8709 12.0847 58.3016 11.212H60.3926C60.1092 12.0733 59.5936 12.7817 58.8456 13.337C58.1089 13.881 57.1909 14.153 56.0916 14.153C55.1962 14.153 54.3916 13.9547 53.6776 13.558C52.9749 13.15 52.4196 12.5833 52.0116 11.858C51.6149 11.1213 51.4166 10.2713 51.4166 9.308C51.4166 8.34467 51.6092 7.50033 51.9946 6.775C52.3912 6.03833 52.9409 5.47167 53.6436 5.075C54.3576 4.67833 55.1736 4.48 56.0916 4.48C56.9756 4.48 57.7632 4.67267 58.4546 5.058C59.1459 5.44333 59.6842 5.98733 60.0696 6.69C60.4549 7.38133 60.6476 8.18033 60.6476 9.087ZM58.6246 8.475C58.6132 7.761 58.3582 7.18867 57.8596 6.758C57.3609 6.32733 56.7432 6.112 56.0066 6.112C55.3379 6.112 54.7656 6.32733 54.2896 6.758C53.8136 7.17733 53.5302 7.74967 53.4396 8.475H58.6246ZM74.4338 11.586H69.4868L68.6368 14H66.6138L70.8468 2.168H73.0908L77.3238 14H75.2838L74.4338 11.586ZM73.8898 10.005L71.9688 4.514L70.0308 10.005H73.8898ZM78.6883 9.308C78.6883 8.34467 78.881 7.50033 79.2663 6.775C79.663 6.03833 80.207 5.47167 80.8983 5.075C81.5896 4.67833 82.383 4.48 83.2783 4.48C84.4116 4.48 85.3466 4.752 86.0833 5.296C86.8313 5.82867 87.3356 6.59367 87.5963 7.591H85.5053C85.3353 7.12633 85.0633 6.76367 84.6893 6.503C84.3153 6.24233 83.845 6.112 83.2783 6.112C82.485 6.112 81.8503 6.39533 81.3743 6.962C80.9096 7.51733 80.6773 8.29933 80.6773 9.308C80.6773 10.3167 80.9096 11.1043 81.3743 11.671C81.8503 12.2377 82.485 12.521 83.2783 12.521C84.4003 12.521 85.1426 12.028 85.5053 11.042H87.5963C87.3243 11.994 86.8143 12.7533 86.0663 13.32C85.3183 13.8753 84.389 14.153 83.2783 14.153C82.383 14.153 81.5896 13.9547 80.8983 13.558C80.207 13.15 79.663 12.5833 79.2663 11.858C78.881 11.1213 78.6883 10.2713 78.6883 9.308ZM89.0517 9.274C89.0517 8.33333 89.2443 7.50033 89.6297 6.775C90.0263 6.04967 90.559 5.48867 91.2277 5.092C91.9077 4.684 92.6557 4.48 93.4717 4.48C94.2083 4.48 94.8487 4.62733 95.3927 4.922C95.948 5.20533 96.39 5.56233 96.7187 5.993V4.633H98.6737V14H96.7187V12.606C96.39 13.048 95.9423 13.4163 95.3757 13.711C94.809 14.0057 94.163 14.153 93.4377 14.153C92.633 14.153 91.8963 13.949 91.2277 13.541C90.559 13.1217 90.0263 12.5437 89.6297 11.807C89.2443 11.059 89.0517 10.2147 89.0517 9.274ZM96.7187 9.308C96.7187 8.662 96.5827 8.101 96.3107 7.625C96.05 7.149 95.7043 6.78633 95.2737 6.537C94.843 6.28767 94.3783 6.163 93.8797 6.163C93.381 6.163 92.9163 6.28767 92.4857 6.537C92.055 6.775 91.7037 7.132 91.4317 7.608C91.171 8.07267 91.0407 8.628 91.0407 9.274C91.0407 9.92 91.171 10.4867 91.4317 10.974C91.7037 11.4613 92.055 11.8353 92.4857 12.096C92.9277 12.3453 93.3923 12.47 93.8797 12.47C94.3783 12.47 94.843 12.3453 95.2737 12.096C95.7043 11.8467 96.05 11.484 96.3107 11.008C96.5827 10.5207 96.7187 9.954 96.7187 9.308ZM100.743 9.274C100.743 8.33333 100.936 7.50033 101.321 6.775C101.718 6.04967 102.25 5.48867 102.919 5.092C103.599 4.684 104.353 4.48 105.18 4.48C105.792 4.48 106.393 4.616 106.982 4.888C107.583 5.14867 108.059 5.5 108.41 5.942V1.42H110.365V14H108.41V12.589C108.093 13.0423 107.651 13.4163 107.084 13.711C106.529 14.0057 105.888 14.153 105.163 14.153C104.347 14.153 103.599 13.949 102.919 13.541C102.25 13.1217 101.718 12.5437 101.321 11.807C100.936 11.059 100.743 10.2147 100.743 9.274ZM108.41 9.308C108.41 8.662 108.274 8.101 108.002 7.625C107.741 7.149 107.396 6.78633 106.965 6.537C106.534 6.28767 106.07 6.163 105.571 6.163C105.072 6.163 104.608 6.28767 104.177 6.537C103.746 6.775 103.395 7.132 103.123 7.608C102.862 8.07267 102.732 8.628 102.732 9.274C102.732 9.92 102.862 10.4867 103.123 10.974C103.395 11.4613 103.746 11.8353 104.177 12.096C104.619 12.3453 105.084 12.47 105.571 12.47C106.07 12.47 106.534 12.3453 106.965 12.096C107.396 11.8467 107.741 11.484 108.002 11.008C108.274 10.5207 108.41 9.954 108.41 9.308ZM121.666 9.087C121.666 9.43833 121.643 9.75567 121.598 10.039H114.441C114.497 10.787 114.775 11.3877 115.274 11.841C115.772 12.2943 116.384 12.521 117.11 12.521C118.152 12.521 118.889 12.0847 119.32 11.212H121.411C121.127 12.0733 120.612 12.7817 119.864 13.337C119.127 13.881 118.209 14.153 117.11 14.153C116.214 14.153 115.41 13.9547 114.696 13.558C113.993 13.15 113.438 12.5833 113.03 11.858C112.633 11.1213 112.435 10.2713 112.435 9.308C112.435 8.34467 112.627 7.50033 113.013 6.775C113.409 6.03833 113.959 5.47167 114.662 5.075C115.376 4.67833 116.192 4.48 117.11 4.48C117.994 4.48 118.781 4.67267 119.473 5.058C120.164 5.44333 120.702 5.98733 121.088 6.69C121.473 7.38133 121.666 8.18033 121.666 9.087ZM119.643 8.475C119.631 7.761 119.376 7.18867 118.878 6.758C118.379 6.32733 117.761 6.112 117.025 6.112C116.356 6.112 115.784 6.32733 115.308 6.758C114.832 7.17733 114.548 7.74967 114.458 8.475H119.643ZM135.082 4.48C135.818 4.48 136.476 4.633 137.054 4.939C137.643 5.245 138.102 5.69833 138.431 6.299C138.771 6.89967 138.941 7.625 138.941 8.475V14H137.02V8.764C137.02 7.92533 136.81 7.285 136.391 6.843C135.971 6.38967 135.399 6.163 134.674 6.163C133.948 6.163 133.37 6.38967 132.94 6.843C132.52 7.285 132.311 7.92533 132.311 8.764V14H130.39V8.764C130.39 7.92533 130.18 7.285 129.761 6.843C129.341 6.38967 128.769 6.163 128.044 6.163C127.318 6.163 126.74 6.38967 126.31 6.843C125.89 7.285 125.681 7.92533 125.681 8.764V14H123.743V4.633H125.681V5.704C125.998 5.31867 126.4 5.01833 126.888 4.803C127.375 4.58767 127.896 4.48 128.452 4.48C129.2 4.48 129.868 4.63867 130.458 4.956C131.047 5.27333 131.5 5.73233 131.818 6.333C132.101 5.76633 132.543 5.31867 133.144 4.99C133.744 4.65 134.39 4.48 135.082 4.48ZM142.563 3.392C142.212 3.392 141.917 3.273 141.679 3.035C141.441 2.797 141.322 2.50233 141.322 2.151C141.322 1.79967 141.441 1.505 141.679 1.267C141.917 1.029 142.212 0.909999 142.563 0.909999C142.903 0.909999 143.192 1.029 143.43 1.267C143.668 1.505 143.787 1.79967 143.787 2.151C143.787 2.50233 143.668 2.797 143.43 3.035C143.192 3.273 142.903 3.392 142.563 3.392ZM143.515 4.633V14H141.577V4.633H143.515ZM145.583 9.274C145.583 8.33333 145.776 7.50033 146.161 6.775C146.558 6.04967 147.091 5.48867 147.759 5.092C148.439 4.684 149.187 4.48 150.003 4.48C150.74 4.48 151.38 4.62733 151.924 4.922C152.48 5.20533 152.922 5.56233 153.25 5.993V4.633H155.205V14H153.25V12.606C152.922 13.048 152.474 13.4163 151.907 13.711C151.341 14.0057 150.695 14.153 149.969 14.153C149.165 14.153 148.428 13.949 147.759 13.541C147.091 13.1217 146.558 12.5437 146.161 11.807C145.776 11.059 145.583 10.2147 145.583 9.274ZM153.25 9.308C153.25 8.662 153.114 8.101 152.842 7.625C152.582 7.149 152.236 6.78633 151.805 6.537C151.375 6.28767 150.91 6.163 150.411 6.163C149.913 6.163 149.448 6.28767 149.017 6.537C148.587 6.775 148.235 7.132 147.963 7.608C147.703 8.07267 147.572 8.628 147.572 9.274C147.572 9.92 147.703 10.4867 147.963 10.974C148.235 11.4613 148.587 11.8353 149.017 12.096C149.459 12.3453 149.924 12.47 150.411 12.47C150.91 12.47 151.375 12.3453 151.805 12.096C152.236 11.8467 152.582 11.484 152.842 11.008C153.114 10.5207 153.25 9.954 153.25 9.308Z" fill="white"/>
</svg>
