<svg width="175" height="18" viewBox="0 0 175 18" fill="none" xmlns="http://www.w3.org/2000/svg">
<path d="M2.213 2.749V6.217H6.293V7.798H2.213V11.419H6.803V13H0.275V1.168H6.803V2.749H2.213ZM13.372 8.257L16.398 13H14.205L12.182 9.821L10.278 13H8.25504L11.281 8.393L8.25504 3.633H10.448L12.471 6.812L14.375 3.633H16.398L13.372 8.257ZM19.9514 5.01C20.2801 4.57933 20.7278 4.21667 21.2944 3.922C21.8611 3.62733 22.5014 3.48 23.2154 3.48C24.0314 3.48 24.7738 3.684 25.4424 4.092C26.1224 4.48867 26.6551 5.04967 27.0404 5.775C27.4258 6.50033 27.6184 7.33333 27.6184 8.274C27.6184 9.21467 27.4258 10.059 27.0404 10.807C26.6551 11.5437 26.1224 12.1217 25.4424 12.541C24.7738 12.949 24.0314 13.153 23.2154 13.153C22.5014 13.153 21.8668 13.0113 21.3114 12.728C20.7561 12.4333 20.3028 12.0707 19.9514 11.64V17.454H18.0134V3.633H19.9514V5.01ZM25.6464 8.274C25.6464 7.628 25.5104 7.07267 25.2384 6.608C24.9778 6.132 24.6264 5.775 24.1844 5.537C23.7538 5.28767 23.2891 5.163 22.7904 5.163C22.3031 5.163 21.8384 5.28767 21.3964 5.537C20.9658 5.78633 20.6144 6.149 20.3424 6.625C20.0818 7.101 19.9514 7.662 19.9514 8.308C19.9514 8.954 20.0818 9.52067 20.3424 10.008C20.6144 10.484 20.9658 10.8467 21.3964 11.096C21.8384 11.3453 22.3031 11.47 22.7904 11.47C23.2891 11.47 23.7538 11.3453 24.1844 11.096C24.6264 10.8353 24.9778 10.4613 25.2384 9.974C25.5104 9.48667 25.6464 8.92 25.6464 8.274ZM31.6429 0.42V13H29.7049V0.42H31.6429ZM38.4203 13.153C37.5363 13.153 36.7373 12.9547 36.0233 12.558C35.3093 12.15 34.7483 11.5833 34.3403 10.858C33.9323 10.1213 33.7283 9.27133 33.7283 8.308C33.7283 7.356 33.938 6.51167 34.3573 5.775C34.7767 5.03833 35.349 4.47167 36.0743 4.075C36.7997 3.67833 37.61 3.48 38.5053 3.48C39.4007 3.48 40.211 3.67833 40.9363 4.075C41.6617 4.47167 42.234 5.03833 42.6533 5.775C43.0727 6.51167 43.2823 7.356 43.2823 8.308C43.2823 9.26 43.067 10.1043 42.6363 10.841C42.2057 11.5777 41.6163 12.15 40.8683 12.558C40.1317 12.9547 39.3157 13.153 38.4203 13.153ZM38.4203 11.47C38.919 11.47 39.3837 11.351 39.8143 11.113C40.2563 10.875 40.6133 10.518 40.8853 10.042C41.1573 9.566 41.2933 8.988 41.2933 8.308C41.2933 7.628 41.163 7.05567 40.9023 6.591C40.6417 6.115 40.296 5.758 39.8653 5.52C39.4347 5.282 38.97 5.163 38.4713 5.163C37.9727 5.163 37.508 5.282 37.0773 5.52C36.658 5.758 36.3237 6.115 36.0743 6.591C35.825 7.05567 35.7003 7.628 35.7003 8.308C35.7003 9.31667 35.9553 10.0987 36.4653 10.654C36.9867 11.198 37.6383 11.47 38.4203 11.47ZM47.3062 4.993C47.5895 4.517 47.9635 4.14867 48.4282 3.888C48.9042 3.616 49.4652 3.48 50.1112 3.48V5.486H49.6182C48.8588 5.486 48.2808 5.67867 47.8842 6.064C47.4988 6.44933 47.3062 7.118 47.3062 8.07V13H45.3682V3.633H47.3062V4.993ZM60.6476 8.087C60.6476 8.43833 60.6249 8.75567 60.5796 9.039H53.4226C53.4792 9.787 53.7569 10.3877 54.2556 10.841C54.7542 11.2943 55.3662 11.521 56.0916 11.521C57.1342 11.521 57.8709 11.0847 58.3016 10.212H60.3926C60.1092 11.0733 59.5936 11.7817 58.8456 12.337C58.1089 12.881 57.1909 13.153 56.0916 13.153C55.1962 13.153 54.3916 12.9547 53.6776 12.558C52.9749 12.15 52.4196 11.5833 52.0116 10.858C51.6149 10.1213 51.4166 9.27133 51.4166 8.308C51.4166 7.34467 51.6092 6.50033 51.9946 5.775C52.3912 5.03833 52.9409 4.47167 53.6436 4.075C54.3576 3.67833 55.1736 3.48 56.0916 3.48C56.9756 3.48 57.7632 3.67267 58.4546 4.058C59.1459 4.44333 59.6842 4.98733 60.0696 5.69C60.4549 6.38133 60.6476 7.18033 60.6476 8.087ZM58.6246 7.475C58.6132 6.761 58.3582 6.18867 57.8596 5.758C57.3609 5.32733 56.7432 5.112 56.0066 5.112C55.3379 5.112 54.7656 5.32733 54.2896 5.758C53.8136 6.17733 53.5302 6.74967 53.4396 7.475H58.6246ZM79.7548 1.185V13H77.8168V4.908L74.2128 13H72.8698L69.2488 4.908V13H67.3108V1.185H69.4018L73.5498 10.45L77.6808 1.185H79.7548ZM81.826 8.274C81.826 7.33333 82.0187 6.50033 82.404 5.775C82.8007 5.04967 83.3333 4.48867 84.002 4.092C84.682 3.684 85.43 3.48 86.246 3.48C86.9827 3.48 87.623 3.62733 88.167 3.922C88.7223 4.20533 89.1643 4.56233 89.493 4.993V3.633H91.448V13H89.493V11.606C89.1643 12.048 88.7167 12.4163 88.15 12.711C87.5833 13.0057 86.9373 13.153 86.212 13.153C85.4073 13.153 84.6707 12.949 84.002 12.541C83.3333 12.1217 82.8007 11.5437 82.404 10.807C82.0187 10.059 81.826 9.21467 81.826 8.274ZM89.493 8.308C89.493 7.662 89.357 7.101 89.085 6.625C88.8243 6.149 88.4787 5.78633 88.048 5.537C87.6173 5.28767 87.1527 5.163 86.654 5.163C86.1553 5.163 85.6907 5.28767 85.26 5.537C84.8293 5.775 84.478 6.132 84.206 6.608C83.9453 7.07267 83.815 7.628 83.815 8.274C83.815 8.92 83.9453 9.48667 84.206 9.974C84.478 10.4613 84.8293 10.8353 85.26 11.096C85.702 11.3453 86.1667 11.47 86.654 11.47C87.1527 11.47 87.6173 11.3453 88.048 11.096C88.4787 10.8467 88.8243 10.484 89.085 10.008C89.357 9.52067 89.493 8.954 89.493 8.308ZM96.1015 4.993C96.3848 4.517 96.7588 4.14867 97.2235 3.888C97.6995 3.616 98.2605 3.48 98.9065 3.48V5.486H98.4135C97.6541 5.486 97.0761 5.67867 96.6795 6.064C96.2941 6.44933 96.1015 7.118 96.1015 8.07V13H94.1635V3.633H96.1015V4.993ZM104.564 8.325L108.882 13H106.264L102.796 8.971V13H100.858V0.42H102.796V7.73L106.196 3.633H108.882L104.564 8.325ZM119.026 8.087C119.026 8.43833 119.003 8.75567 118.958 9.039H111.801C111.858 9.787 112.135 10.3877 112.634 10.841C113.133 11.2943 113.745 11.521 114.47 11.521C115.513 11.521 116.249 11.0847 116.68 10.212H118.771C118.488 11.0733 117.972 11.7817 117.224 12.337C116.487 12.881 115.569 13.153 114.47 13.153C113.575 13.153 112.77 12.9547 112.056 12.558C111.353 12.15 110.798 11.5833 110.39 10.858C109.993 10.1213 109.795 9.27133 109.795 8.308C109.795 7.34467 109.988 6.50033 110.373 5.775C110.77 5.03833 111.319 4.47167 112.022 4.075C112.736 3.67833 113.552 3.48 114.47 3.48C115.354 3.48 116.142 3.67267 116.833 4.058C117.524 4.44333 118.063 4.98733 118.448 5.69C118.833 6.38133 119.026 7.18033 119.026 8.087ZM117.003 7.475C116.992 6.761 116.737 6.18867 116.238 5.758C115.739 5.32733 115.122 5.112 114.385 5.112C113.716 5.112 113.144 5.32733 112.668 5.758C112.192 6.17733 111.909 6.74967 111.818 7.475H117.003ZM123.364 5.214V10.399C123.364 10.7503 123.443 11.0053 123.602 11.164C123.772 11.3113 124.055 11.385 124.452 11.385H125.642V13H124.112C123.239 13 122.571 12.796 122.106 12.388C121.641 11.98 121.409 11.317 121.409 10.399V5.214H120.304V3.633H121.409V1.304H123.364V3.633H125.642V5.214H123.364ZM129.536 5.01C129.865 4.57933 130.313 4.21667 130.879 3.922C131.446 3.62733 132.086 3.48 132.8 3.48C133.616 3.48 134.359 3.684 135.027 4.092C135.707 4.48867 136.24 5.04967 136.625 5.775C137.011 6.50033 137.203 7.33333 137.203 8.274C137.203 9.21467 137.011 10.059 136.625 10.807C136.24 11.5437 135.707 12.1217 135.027 12.541C134.359 12.949 133.616 13.153 132.8 13.153C132.086 13.153 131.452 13.0113 130.896 12.728C130.341 12.4333 129.888 12.0707 129.536 11.64V17.454H127.598V3.633H129.536V5.01ZM135.231 8.274C135.231 7.628 135.095 7.07267 134.823 6.608C134.563 6.132 134.211 5.775 133.769 5.537C133.339 5.28767 132.874 5.163 132.375 5.163C131.888 5.163 131.423 5.28767 130.981 5.537C130.551 5.78633 130.199 6.149 129.927 6.625C129.667 7.101 129.536 7.662 129.536 8.308C129.536 8.954 129.667 9.52067 129.927 10.008C130.199 10.484 130.551 10.8467 130.981 11.096C131.423 11.3453 131.888 11.47 132.375 11.47C132.874 11.47 133.339 11.3453 133.769 11.096C134.211 10.8353 134.563 10.4613 134.823 9.974C135.095 9.48667 135.231 8.92 135.231 8.274ZM141.228 0.42V13H139.29V0.42H141.228ZM143.296 8.274C143.296 7.33333 143.489 6.50033 143.874 5.775C144.271 5.04967 144.804 4.48867 145.472 4.092C146.152 3.684 146.9 3.48 147.716 3.48C148.453 3.48 149.093 3.62733 149.637 3.922C150.193 4.20533 150.635 4.56233 150.963 4.993V3.633H152.918V13H150.963V11.606C150.635 12.048 150.187 12.4163 149.62 12.711C149.054 13.0057 148.408 13.153 147.682 13.153C146.878 13.153 146.141 12.949 145.472 12.541C144.804 12.1217 144.271 11.5437 143.874 10.807C143.489 10.059 143.296 9.21467 143.296 8.274ZM150.963 8.308C150.963 7.662 150.827 7.101 150.555 6.625C150.295 6.149 149.949 5.78633 149.518 5.537C149.088 5.28767 148.623 5.163 148.124 5.163C147.626 5.163 147.161 5.28767 146.73 5.537C146.3 5.775 145.948 6.132 145.676 6.608C145.416 7.07267 145.285 7.628 145.285 8.274C145.285 8.92 145.416 9.48667 145.676 9.974C145.948 10.4613 146.3 10.8353 146.73 11.096C147.172 11.3453 147.637 11.47 148.124 11.47C148.623 11.47 149.088 11.3453 149.518 11.096C149.949 10.8467 150.295 10.484 150.555 10.008C150.827 9.52067 150.963 8.954 150.963 8.308ZM154.988 8.308C154.988 7.34467 155.18 6.50033 155.566 5.775C155.962 5.03833 156.506 4.47167 157.198 4.075C157.889 3.67833 158.682 3.48 159.578 3.48C160.711 3.48 161.646 3.752 162.383 4.296C163.131 4.82867 163.635 5.59367 163.896 6.591H161.805C161.635 6.12633 161.363 5.76367 160.989 5.503C160.615 5.24233 160.144 5.112 159.578 5.112C158.784 5.112 158.15 5.39533 157.674 5.962C157.209 6.51733 156.977 7.29933 156.977 8.308C156.977 9.31667 157.209 10.1043 157.674 10.671C158.15 11.2377 158.784 11.521 159.578 11.521C160.7 11.521 161.442 11.028 161.805 10.042H163.896C163.624 10.994 163.114 11.7533 162.366 12.32C161.618 12.8753 160.688 13.153 159.578 13.153C158.682 13.153 157.889 12.9547 157.198 12.558C156.506 12.15 155.962 11.5833 155.566 10.858C155.18 10.1213 154.988 9.27133 154.988 8.308ZM174.582 8.087C174.582 8.43833 174.559 8.75567 174.514 9.039H167.357C167.414 9.787 167.691 10.3877 168.19 10.841C168.689 11.2943 169.301 11.521 170.026 11.521C171.069 11.521 171.805 11.0847 172.236 10.212H174.327C174.044 11.0733 173.528 11.7817 172.78 12.337C172.043 12.881 171.125 13.153 170.026 13.153C169.131 13.153 168.326 12.9547 167.612 12.558C166.909 12.15 166.354 11.5833 165.946 10.858C165.549 10.1213 165.351 9.27133 165.351 8.308C165.351 7.34467 165.544 6.50033 165.929 5.775C166.326 5.03833 166.875 4.47167 167.578 4.075C168.292 3.67833 169.108 3.48 170.026 3.48C170.91 3.48 171.698 3.67267 172.389 4.058C173.08 4.44333 173.619 4.98733 174.004 5.69C174.389 6.38133 174.582 7.18033 174.582 8.087ZM172.559 7.475C172.548 6.761 172.293 6.18867 171.794 5.758C171.295 5.32733 170.678 5.112 169.941 5.112C169.272 5.112 168.7 5.32733 168.224 5.758C167.748 6.17733 167.465 6.74967 167.374 7.475H172.559Z" fill="white"/>
</svg>
