<svg width="228" height="30" viewBox="0 0 228 30" fill="none" xmlns="http://www.w3.org/2000/svg">
<path d="M0.466753 12.6933C0.466753 10.7574 0.885573 9.03563 1.72321 7.52788C2.56085 6.00152 3.72424 4.81951 5.21338 3.98187C6.72113 3.12562 8.42433 2.69749 10.323 2.69749C12.6498 2.69749 14.6415 3.31176 16.2981 4.5403C17.9548 5.76884 19.0624 7.44412 19.6208 9.56614H14.3716C13.9807 8.74711 13.4223 8.12354 12.6963 7.69541C11.989 7.26728 11.1792 7.05322 10.2671 7.05322C8.79662 7.05322 7.60531 7.56511 6.69321 8.58889C5.78111 9.61267 5.32507 10.9808 5.32507 12.6933C5.32507 14.4058 5.78111 15.774 6.69321 16.7978C7.60531 17.8215 8.79662 18.3334 10.2671 18.3334C11.1792 18.3334 11.989 18.1194 12.6963 17.6912C13.4223 17.2631 13.9807 16.6395 14.3716 15.8205H19.6208C19.0624 17.9425 17.9548 19.6178 16.2981 20.8464C14.6415 22.0563 12.6498 22.6612 10.323 22.6612C8.42433 22.6612 6.72113 22.2424 5.21338 21.4048C3.72424 20.5485 2.56085 19.3665 1.72321 17.8588C0.885573 16.351 0.466753 14.6292 0.466753 12.6933ZM21.5953 14.7037C21.5953 13.1028 21.8932 11.6975 22.4888 10.4875C23.1031 9.27762 23.9314 8.34691 24.9738 7.69541C26.0162 7.04391 27.1796 6.71816 28.464 6.71816C29.5622 6.71816 30.5209 6.94153 31.3399 7.38827C32.1775 7.83502 32.8197 8.42136 33.2665 9.14732V6.94153H38.041V22.5216H33.2665V20.3159C32.8011 21.0418 32.1496 21.6282 31.312 22.0749C30.4929 22.5216 29.5343 22.745 28.4361 22.745C27.1703 22.745 26.0162 22.4193 24.9738 21.7678C23.9314 21.0976 23.1031 20.1576 22.4888 18.9477C21.8932 17.7192 21.5953 16.3045 21.5953 14.7037ZM33.2665 14.7316C33.2665 13.5403 32.9314 12.6003 32.2613 11.9115C31.6098 11.2228 30.8094 10.8784 29.8601 10.8784C28.9107 10.8784 28.101 11.2228 27.4309 11.9115C26.7794 12.5816 26.4537 13.5124 26.4537 14.7037C26.4537 15.895 26.7794 16.8443 27.4309 17.5516C28.101 18.2404 28.9107 18.5847 29.8601 18.5847C30.8094 18.5847 31.6098 18.2404 32.2613 17.5516C32.9314 16.8629 33.2665 15.9229 33.2665 14.7316ZM61.3752 6.77401C63.3111 6.77401 64.8467 7.36035 65.9822 8.53305C67.1363 9.70574 67.7133 11.3345 67.7133 13.4193V22.5216H62.9667V14.0615C62.9667 13.0563 62.6968 12.2838 62.157 11.744C61.6358 11.1856 60.9098 10.9064 59.9791 10.9064C59.0484 10.9064 58.3131 11.1856 57.7733 11.744C57.2521 12.2838 56.9915 13.0563 56.9915 14.0615V22.5216H52.2449V14.0615C52.2449 13.0563 51.975 12.2838 51.4352 11.744C50.914 11.1856 50.188 10.9064 49.2573 10.9064C48.3266 10.9064 47.5913 11.1856 47.0515 11.744C46.5303 12.2838 46.2697 13.0563 46.2697 14.0615V22.5216H41.4952V6.94153H46.2697V8.89603C46.7537 8.24453 47.3866 7.73264 48.1684 7.36035C48.9502 6.96945 49.8344 6.77401 50.8209 6.77401C51.9936 6.77401 53.036 7.0253 53.9481 7.52788C54.8788 8.03047 55.6048 8.74711 56.126 9.67782C56.6658 8.82157 57.401 8.12354 58.3318 7.58372C59.2625 7.04391 60.2769 6.77401 61.3752 6.77401ZM75.8271 9.14732C76.2924 8.42136 76.9346 7.83502 77.7537 7.38827C78.5727 6.94153 79.5313 6.71816 80.6296 6.71816C81.9139 6.71816 83.0773 7.04391 84.1197 7.69541C85.1621 8.34691 85.9811 9.27762 86.5768 10.4875C87.1911 11.6975 87.4982 13.1028 87.4982 14.7037C87.4982 16.3045 87.1911 17.7192 86.5768 18.9477C85.9811 20.1576 85.1621 21.0976 84.1197 21.7678C83.0773 22.4193 81.9139 22.745 80.6296 22.745C79.5499 22.745 78.5913 22.5216 77.7537 22.0749C76.9346 21.6282 76.2924 21.0511 75.8271 20.3438V29.9487H71.0525V6.94153H75.8271V9.14732ZM82.6399 14.7037C82.6399 13.5124 82.3048 12.5816 81.6347 11.9115C80.9832 11.2228 80.1735 10.8784 79.2056 10.8784C78.2562 10.8784 77.4465 11.2228 76.7764 11.9115C76.1249 12.6003 75.7992 13.5403 75.7992 14.7316C75.7992 15.9229 76.1249 16.8629 76.7764 17.5516C77.4465 18.2404 78.2562 18.5847 79.2056 18.5847C80.1549 18.5847 80.9646 18.2404 81.6347 17.5516C82.3048 16.8443 82.6399 15.895 82.6399 14.7037ZM105.388 6.94153V22.5216H100.613V20.3996C100.129 21.0883 99.4684 21.6468 98.6307 22.0749C97.8117 22.4844 96.8996 22.6892 95.8945 22.6892C94.7031 22.6892 93.6514 22.4286 92.7393 21.9074C91.8272 21.3676 91.1199 20.5951 90.6173 19.5899C90.1147 18.5847 89.8634 17.4027 89.8634 16.0439V6.94153H94.6101V15.4017C94.6101 16.4441 94.88 17.2538 95.4198 17.8309C95.9596 18.4079 96.6856 18.6964 97.5977 18.6964C98.5284 18.6964 99.2636 18.4079 99.8034 17.8309C100.343 17.2538 100.613 16.4441 100.613 15.4017V6.94153H105.388ZM115.155 22.745C113.797 22.745 112.587 22.5123 111.526 22.047C110.465 21.5816 109.627 20.9487 109.013 20.1483C108.398 19.3293 108.054 18.4172 107.98 17.412H112.698C112.754 17.9518 113.005 18.3893 113.452 18.7243C113.899 19.0594 114.448 19.2269 115.1 19.2269C115.695 19.2269 116.151 19.1152 116.468 18.8919C116.803 18.6499 116.97 18.3427 116.97 17.9705C116.97 17.5237 116.738 17.198 116.272 16.9932C115.807 16.7698 115.053 16.5279 114.011 16.2673C112.894 16.0067 111.963 15.7368 111.218 15.4575C110.474 15.1597 109.832 14.7037 109.292 14.0894C108.752 13.4565 108.482 12.6096 108.482 11.5486C108.482 10.6551 108.724 9.84535 109.208 9.1194C109.711 8.37483 110.437 7.78848 111.386 7.36035C112.354 6.93223 113.499 6.71816 114.82 6.71816C116.775 6.71816 118.31 7.20213 119.427 8.17007C120.563 9.13801 121.214 10.4224 121.382 12.0232H116.97C116.896 11.4834 116.654 11.0553 116.244 10.7388C115.853 10.4224 115.332 10.2642 114.681 10.2642C114.122 10.2642 113.694 10.3759 113.396 10.5992C113.098 10.804 112.95 11.0925 112.95 11.4648C112.95 11.9115 113.182 12.2466 113.648 12.47C114.132 12.6933 114.876 12.9167 115.881 13.1401C117.035 13.4379 117.975 13.7357 118.701 14.0336C119.427 14.3128 120.06 14.7781 120.6 15.4296C121.158 16.0625 121.447 16.9188 121.466 17.9984C121.466 18.9105 121.205 19.7295 120.684 20.4555C120.181 21.1628 119.446 21.7212 118.478 22.1307C117.529 22.5403 116.421 22.745 115.155 22.745Z" fill="#7F53FA"/>
<path d="M137.647 2.92086C139.713 2.92086 141.519 3.33037 143.064 4.1494C144.609 4.96843 145.8 6.12251 146.638 7.61164C147.494 9.08217 147.922 10.7854 147.922 12.7212C147.922 14.6385 147.494 16.3417 146.638 17.8309C145.8 19.32 144.599 20.4741 143.036 21.2931C141.491 22.1121 139.694 22.5216 137.647 22.5216H130.304V2.92086H137.647ZM137.34 18.3893C139.145 18.3893 140.551 17.896 141.556 16.9094C142.561 15.9229 143.064 14.5268 143.064 12.7212C143.064 10.9157 142.561 9.5103 141.556 8.50513C140.551 7.49996 139.145 6.99738 137.34 6.99738H135.078V18.3893H137.34ZM152.991 5.3221C152.154 5.3221 151.465 5.08011 150.925 4.59614C150.404 4.09356 150.143 3.47929 150.143 2.75333C150.143 2.00876 150.404 1.3945 150.925 0.910525C151.465 0.407941 152.154 0.156649 152.991 0.156649C153.81 0.156649 154.481 0.407941 155.002 0.910525C155.542 1.3945 155.811 2.00876 155.811 2.75333C155.811 3.47929 155.542 4.09356 155.002 4.59614C154.481 5.08011 153.81 5.3221 152.991 5.3221ZM155.365 6.94153V22.5216H150.59V6.94153H155.365ZM157.875 14.7037C157.875 13.1028 158.173 11.6975 158.769 10.4875C159.383 9.27762 160.212 8.34691 161.254 7.69541C162.296 7.04391 163.46 6.71816 164.744 6.71816C165.842 6.71816 166.801 6.94153 167.62 7.38827C168.458 7.83502 169.1 8.42136 169.547 9.14732V6.94153H174.321V22.5216H169.547V20.3159C169.081 21.0418 168.43 21.6282 167.592 22.0749C166.773 22.5216 165.814 22.745 164.716 22.745C163.45 22.745 162.296 22.4193 161.254 21.7678C160.212 21.0976 159.383 20.1576 158.769 18.9477C158.173 17.7192 157.875 16.3045 157.875 14.7037ZM169.547 14.7316C169.547 13.5403 169.212 12.6003 168.541 11.9115C167.89 11.2228 167.089 10.8784 166.14 10.8784C165.191 10.8784 164.381 11.2228 163.711 11.9115C163.06 12.5816 162.734 13.5124 162.734 14.7037C162.734 15.895 163.06 16.8443 163.711 17.5516C164.381 18.2404 165.191 18.5847 166.14 18.5847C167.089 18.5847 167.89 18.2404 168.541 17.5516C169.212 16.8629 169.547 15.9229 169.547 14.7316ZM182.55 9.53822C183.108 8.68196 183.806 8.01185 184.644 7.52788C185.482 7.0253 186.412 6.77401 187.436 6.77401V11.8278H186.124C184.932 11.8278 184.039 12.0884 183.443 12.6096C182.848 13.1121 182.55 14.0056 182.55 15.29V22.5216H177.775V6.94153H182.55V9.53822ZM192.119 5.3221C191.282 5.3221 190.593 5.08011 190.053 4.59614C189.532 4.09356 189.271 3.47929 189.271 2.75333C189.271 2.00876 189.532 1.3945 190.053 0.910525C190.593 0.407941 191.282 0.156649 192.119 0.156649C192.938 0.156649 193.609 0.407941 194.13 0.910525C194.67 1.3945 194.939 2.00876 194.939 2.75333C194.939 3.47929 194.67 4.09356 194.13 4.59614C193.609 5.08011 192.938 5.3221 192.119 5.3221ZM194.493 6.94153V22.5216H189.718V6.94153H194.493ZM212.639 14.4803C212.639 14.927 212.612 15.3924 212.556 15.8764H201.75C201.825 16.8443 202.132 17.5889 202.672 18.1101C203.23 18.6127 203.909 18.8639 204.71 18.8639C205.901 18.8639 206.729 18.3614 207.195 17.3562H212.276C212.016 18.38 211.541 19.3014 210.852 20.1204C210.182 20.9394 209.335 21.5816 208.312 22.047C207.288 22.5123 206.143 22.745 204.877 22.745C203.351 22.745 201.992 22.4193 200.801 21.7678C199.609 21.1163 198.679 20.1856 198.009 18.9756C197.339 17.7657 197.003 16.351 197.003 14.7316C197.003 13.1121 197.329 11.6975 197.981 10.4875C198.651 9.27762 199.582 8.34691 200.773 7.69541C201.964 7.04391 203.332 6.71816 204.877 6.71816C206.385 6.71816 207.725 7.0346 208.898 7.66749C210.071 8.30037 210.983 9.20316 211.634 10.3759C212.304 11.5486 212.639 12.9167 212.639 14.4803ZM207.753 13.2238C207.753 12.4048 207.474 11.7533 206.916 11.2693C206.357 10.7854 205.659 10.5434 204.821 10.5434C204.021 10.5434 203.342 10.7761 202.783 11.2414C202.243 11.7068 201.908 12.3676 201.778 13.2238H207.753ZM221.496 22.745C220.138 22.745 218.928 22.5123 217.867 22.047C216.806 21.5816 215.968 20.9487 215.354 20.1483C214.739 19.3293 214.395 18.4172 214.321 17.412H219.039C219.095 17.9518 219.346 18.3893 219.793 18.7243C220.24 19.0594 220.789 19.2269 221.441 19.2269C222.036 19.2269 222.492 19.1152 222.809 18.8919C223.144 18.6499 223.311 18.3427 223.311 17.9705C223.311 17.5237 223.079 17.198 222.613 16.9932C222.148 16.7698 221.394 16.5279 220.352 16.2673C219.235 16.0067 218.304 15.7368 217.559 15.4575C216.815 15.1597 216.173 14.7037 215.633 14.0894C215.093 13.4565 214.823 12.6096 214.823 11.5486C214.823 10.6551 215.065 9.84535 215.549 9.1194C216.052 8.37483 216.778 7.78848 217.727 7.36035C218.695 6.93223 219.84 6.71816 221.161 6.71816C223.116 6.71816 224.651 7.20213 225.768 8.17007C226.904 9.13801 227.555 10.4224 227.723 12.0232H223.311C223.237 11.4834 222.995 11.0553 222.585 10.7388C222.194 10.4224 221.673 10.2642 221.022 10.2642C220.463 10.2642 220.035 10.3759 219.737 10.5992C219.44 10.804 219.291 11.0925 219.291 11.4648C219.291 11.9115 219.523 12.2466 219.989 12.47C220.473 12.6933 221.217 12.9167 222.222 13.1401C223.376 13.4379 224.316 13.7357 225.042 14.0336C225.768 14.3128 226.401 14.7781 226.941 15.4296C227.499 16.0625 227.788 16.9188 227.807 17.9984C227.807 18.9105 227.546 19.7295 227.025 20.4555C226.522 21.1628 225.787 21.7212 224.819 22.1307C223.87 22.5403 222.762 22.745 221.496 22.745Z" fill="#1A191C"/>
</svg>
